<svg xmlns="http://www.w3.org/2000/svg" viewBox="0 0 512 512"><circle cx="256" cy="256" fill="#424242" r="256"/><path d="M284 511c110-12 199-94 222-200L341 146s-135-4-184 76l72 73-64 98z" fill="#232323"/><path d="M362 393H165v-67l127-96c16-12 12-29 10-34a29 29 0 00-28-21h-23c-33 0-35 36-35 47h-59c0-62 39-105 94-105h26c38 1 70 25 81 61 12 37 0 76-31 99l-76 57h111v59z" fill="#f8fffb"/><path d="M327 277l-67 51v-74l32-24c16-12 12-29 10-34a29 29 0 00-28-21h-14v-58h17c38 1 70 25 81 61 12 37 0 76-31 99zM260 334h102v59H260z" fill="#d8d8d8"/></svg>