<svg xmlns="http://www.w3.org/2000/svg" viewBox="0 0 512 512"><circle cx="256" cy="256" fill="#07e5ca" r="256"/><path d="M258 342l-33-29-37 50 139 139c86-25 154-94 177-181L327 145l-162 44 71 71-3 16 55 54s-19 14-30 12z" fill="#00b59b"/><path d="M327 145a97 97 0 00-72-29l-17 2h-2c-17 3-33 12-46 24a81 81 0 00-24 42l-1 5 60 5 1-3c3-9 12-16 22-18h1c11-2 23 2 30 10 10 11 9 28-2 38-5 4-31 10-40 10l-4-1v46h4c9 0 35 5 40 10 11 10 12 27 2 38-7 8-19 12-30 10l-1-1c-10-2-19-8-22-17l-1-3-60 4 1 5c4 16 12 31 24 43 13 12 29 20 46 23l2 1 17 1c29 0 56-10 72-28 27-30 26-77-2-109 28-31 29-78 2-108z" fill="#f8fffb"/><path d="M325 253c28 32 29 79 2 109a97 97 0 01-71 28v-56c9 0 17-4 23-10 10-11 9-28-2-38-3-3-12-6-21-8v-50l21-7c11-10 12-27 2-38-6-7-14-10-23-11v-56c29 0 55 11 71 29 27 30 26 77-2 108z" fill="#d8d8d8"/></svg>