<svg xmlns="http://www.w3.org/2000/svg" viewBox="0 0 512 512"><path d="M435 61H120c-8 0-15 6-15 15v421c0 8 7 15 15 15h315c8 0 15-7 15-15V76c0-9-7-15-15-15z" fill="#cee8ff"/><path d="M450 76v421c0 8-7 15-15 15H180V61h255c8 0 15 6 15 15z" fill="#aedaff"/><path d="M330 0H30c-8 0-15 7-15 15v422c0 8 7 15 15 15h300c8 0 15-7 15-15V15c0-8-7-15-15-15z" fill="#edf5ff"/><path d="M345 15v422c0 8-7 15-15 15H180V0h150c8 0 15 7 15 15z" fill="#cee8ff"/><path d="M489 387l-39-23v-16l39-23c7-5 10-14 6-21l-31-52c-4-7-13-9-20-5l-39 23-15-9v-45c0-8-7-15-15-15h-60c-9 0-15 7-15 15v46l-15 8-39-23c-8-4-17-1-21 6l-30 52c-4 7-1 16 6 21l40 22v17l-40 23c-7 4-9 13-5 21l30 52c4 7 13 9 20 5l40-23c5 3 9 6 15 8v46c0 8 6 15 15 15h60c8 0 15-7 15-15v-46l14-8 40 22c7 4 16 2 20-5l30-52c4-8 2-17-6-21z" fill="#ff7900"/><path d="M495 408l-30 52c-4 7-13 9-20 5l-40-22-14 8v46c0 8-7 15-15 15h-31V201h30c8 0 15 7 15 15v45l14 9 40-23c7-4 16-2 20 5l31 52c4 7 1 16-6 21l-39 23v16l39 23c8 4 10 13 6 21z" fill="#ff4800"/><path d="M345 401z" fill="#edf5ff"/><path d="M390 356c0 25-20 45-45 45v-90c25 0 45 20 45 45zM278 121H83c-9 0-15 7-15 15v60c0 8 6 15 15 15h195c8 0 15-7 15-15v-60c0-8-7-15-15-15z" fill="#cee8ff"/><path d="M293 136v60c0 8-7 15-15 15h-98v-90h98c8 0 15 7 15 15z" fill="#aedaff"/><path d="M83 91h195a15 15 0 000-30H83a15 15 0 000 30z" fill="#cee8ff"/><path d="M293 76c0 8-7 15-15 15h-98V61h98c8 0 15 7 15 15z" fill="#aedaff"/><path d="M181 241H83a15 15 0 000 30h98a15 15 0 000-30z" fill="#cee8ff"/><path d="M196 256c0 8-7 15-15 15h-1v-30h1c8 0 15 7 15 15z" fill="#aedaff"/><g fill="#cee8ff"><path d="M153 301H83a15 15 0 000 30h70a15 15 0 000-30zM153 361H83a15 15 0 000 30h70a15 15 0 000-30z"/></g></svg>