<svg xmlns="http://www.w3.org/2000/svg" viewBox="0 0 512 512"><path d="M4 81a81 81 0 11133 60c-1 2-1 5 1 6l15 9c3 2 2 5-1 5H83c-44-1-79-36-79-80z" fill="#7acaa6"/><path d="M153 156l-15-9c-2-1-2-4-1-6A80 80 0 0069 1a81 81 0 0149 129c-7 8-5 21 4 26h1c2 2 1 5-2 5h31c3 0 4-3 1-5z" fill="#57be92"/><path d="M397 293H214c-46 0-71-54-42-89l2-2c13-15 20-35 20-55v-35a112 112 0 01224 0v36c0 21 7 40 20 56 30 35 5 89-41 89z" fill="#c59191"/><path d="M493 383v121H118V384c0-27 16-51 41-62l61-26 20-9c15-7 25-22 25-39v-8h80v8c0 17 10 32 26 39l82 35c24 11 40 35 40 61z" fill="#fff"/><path d="M220 325a291 291 0 00171-2l10-24-30-12c-16-7-26-22-26-39v-8h-80v8c0 17-10 32-25 39l-24 10z" fill="#ffcebf"/><g fill="#8795de"><path d="M453 322l-62-27v209h102V383c0-26-16-50-40-61zM220 296v208H118V384c0-27 16-51 41-62z"/></g><path d="M333 284c9 0 18-2 26-5-9-8-14-19-14-31v-8h-80v8c0 6-1 12-3 17 12 12 28 19 46 19h25z" fill="#ffb09e"/><path d="M385 120v66c0 37-30 67-67 67h-25c-37 0-67-30-67-67v-66c0-24 19-43 43-43h72c24 0 44 19 44 43z" fill="#ffcebf"/><path d="M385 155c-3 8-9 24-24 36-8 6-16 10-25 12a8 8 0 104 15 83 83 0 0045-30v-33z" fill="#7a6d79"/><path d="M328 224h-18a15 15 0 010-29h18a15 15 0 010 29z" fill="#685e68"/><path d="M321 59c2-21 23-36 42-43 33 19 55 55 55 96v8a93 93 0 01-32 1c-41-6-67-36-65-62z" fill="#b98080"/><path d="M306 0c25 0 48 8 67 23a200 200 0 01-146 98h-33v-9C194 50 244 0 306 0z" fill="#c59191"/><path d="M431 504H187l-13-126c-1-9 6-17 15-17h240c9 0 16 8 15 17z" fill="#efedef"/><path d="M429 361h-30c9 0 16 8 15 17l-13 126h30l13-126c1-9-6-17-15-17z" fill="#e5e1e5"/><g><path d="M505 512H8a7 7 0 110-15h497a7 7 0 110 15z" fill="#c9bfc8"/></g><circle cx="309.1" cy="432.6" fill="#c9bfc8" r="21.3"/><g fill="#fff"><circle cx="54" cy="80.7" r="7.6"/><circle cx="84.5" cy="80.7" r="7.6"/><circle cx="114.9" cy="80.7" r="7.6"/></g></svg>