<svg viewBox="0 0 483 483" xmlns="http://www.w3.org/2000/svg"><path d="M435 160H208c-7 0-15-3-20-9l-29-31c-5-5-12-9-20-9H44c-15 0-27 13-27 28v305c0 15 12 27 27 27h391c15 0 27-12 27-27V187c0-15-12-27-27-27z" fill="#eab54e"/><path d="M82 12h332v298H82z" fill="#dbd8dd"/><path d="M65 40h322v287H65z" fill="#eeefee"/><g fill="#dbd8dd"><path d="M101 76h249v13H101zM101 118h249v13H101zM101 159h249v13H101z"/></g><path d="M456 204H208c-7 0-15 3-20 8l-29 31c-5 6-12 9-20 9H27a27 27 0 00-27 30l14 164c2 14 13 25 28 25h395c14 0 26-11 28-25l18-212a27 27 0 00-27-30z" fill="#f6c863"/></svg>