<svg xmlns="http://www.w3.org/2000/svg" viewBox="0 0 512 512"><path d="M391 500c-1 3-4 5-7 5l-7 1-121 6-128-7a7 7 0 01-3-13c26-17 50-28 60-32l71-48 46 31 25 17c10 4 34 15 60 32 3 1 4 5 4 8z" fill="#9696b8"/><path d="M391 500c-1 3-4 5-7 5l-7 1c-39-30-73-46-73-46l-2-17 25 17c10 4 34 15 60 32 3 1 4 5 4 8z" fill="#7c7c96"/><path d="M328 416s-3 21-1 44a1556 1556 0 01-142 0c2-23-1-44-1-44a8 8 0 017-9h130a8 8 0 017 9z" fill="#7c7c96"/><path d="M328 416s-3 21-1 44h-23c-3-19-1-43-1-53h18a8 8 0 017 9z" fill="#606075"/><path d="M512 233c0 109-6 173-7 174 0 4-3 6-6 7l-29 2c-39 2-115 6-214 6-146 0-242-8-243-8-3-1-6-3-6-7-1-1-7-65-7-174S6 59 7 59c0-4 3-7 6-7 1 0 97-9 243-9 100 0 176 4 215 7h1l27 2c3 0 6 3 6 7 1 0 7 65 7 174z" fill="#9696b8"/><path d="M505 59c1 0 7 65 7 174s-6 173-7 174c0 4-3 6-6 7l-29 2c3-1 5-3 5-7 1 0 7-66 7-176 0-111-6-176-7-177 0-3-2-5-4-6h1l27 2c3 0 6 3 6 7z" fill="#7c7c96"/><path d="M482 233c0 55-2 99-3 126 0 3-3 6-7 7l-24 1a3421 3421 0 01-408-1c-4-1-7-4-7-7a2351 2351 0 011-272c1-4 4-7 7-7a3271 3271 0 01430 0c3 0 6 3 7 7 2 30 4 79 4 146z" fill="#f4f2f1"/><path d="M482 233c0 55-2 99-3 126 0 3-3 6-7 7l-24 1a2404 2404 0 00-1-289l24 2c3 0 6 3 7 7 2 30 4 79 4 146z" fill="#ded6d4"/><g fill="#d1c4c1"><path d="M100 324l-23-1-1-24a8 8 0 00-15 0l1 31c0 4 3 7 7 7a2866 2866 0 0031 2 8 8 0 000-15zM101 107l-31 1c-4 0-7 3-7 7l-2 31a7 7 0 1015 1l1-24 24-1a8 8 0 000-15zM411 122l24 1 1 24a7 7 0 1015-1l-2-31c0-4-3-7-7-7l-31-1a8 8 0 000 15zM444 292c-4 0-8 3-8 7l-1 24-25 1a7 7 0 100 15l33-2c4 0 7-3 7-7l1-31c0-4-3-7-7-7z"/></g><path d="M410 496c-1-5-5-7-9-6 0 0-38 7-145 7s-145-7-145-7a7 7 0 00-3 14c2 1 40 8 148 8s146-7 148-8c4 0 7-4 6-8z" fill="#7c7c96"/><path d="M304 270a48 48 0 01-96 0c0-4 3-7 8-7h80c5 0 8 3 8 7z" fill="#9696b8"/><path d="M304 270a48 48 0 01-61 46c20-5 35-24 35-46 0-4-3-7-8-7h26c5 0 8 3 8 7z" fill="#7c7c96"/><path d="M369 113c0 37-17 71-47 93l-1 23-65 49-13-10-52-40-1-22a113 113 0 11179-93z" fill="#ffd07b"/><path d="M369 113c0 37-17 71-47 93l-1 23-65 49-13-10 52-39 1-23A113 113 0 00243 1l13-1c62 0 113 51 113 113z" fill="#f6b95e"/><g fill="#e9ad56"><path d="M220 102c-4 1-6 5-5 9 0 0 12 55 12 119a8 8 0 0015 0c0-66-12-120-13-123-1-4-5-6-9-5zM292 102c-4-1-8 1-9 5-1 3-13 57-13 123a8 8 0 0015 0c0-64 12-119 12-119 1-4-1-8-5-9z"/></g><path d="M321 229l-2 40c0 4-3 7-7 7a902 902 0 01-112 0c-4 0-7-3-7-7l-2-41a1516 1516 0 00130 1z" fill="#e2e2eb"/><path d="M295 229h26l-2 40c0 4-3 7-7 7l-25 1c4 0 6-3 6-7l2-41z" fill="#bcbcd1"/><path d="M341 228c0-4-4-7-8-7a2221 2221 0 01-154-1 7 7 0 10-1 15 1480 1480 0 00156 1c4 0 7-4 7-8z" fill="#9696b8"/><path d="M307 136c0-4-4-8-8-7a884 884 0 01-86-1 7 7 0 10-1 15 597 597 0 0088 1c4-1 7-4 7-8z" fill="#f6b95e"/></svg>