<svg id="Layer_1" enable-background="new 0 0 512.005 512.005" height="512" viewBox="0 0 512.005 512.005" width="512" xmlns="http://www.w3.org/2000/svg"><g><path d="m390.612 499.88c-.83 3.16-3.61 5.43-6.88 5.59l-7.13.37-120.22 6.16h-.76l-127.35-6.53c-3.27-.16-6.05-2.43-6.88-5.59-.82-3.17.5-6.5 3.27-8.25 26.02-16.37 50.59-27.88 59.93-32.06l71.41-47.26 46.32 30.66 25.09 16.6c9.34 4.18 33.91 15.69 59.93 32.06 2.77 1.75 4.09 5.08 3.27 8.25z" fill="#9696b8"/><path d="m390.612 499.88c-.83 3.16-3.61 5.43-6.88 5.59l-7.13.37c-38.44-30.2-72.68-45.54-72.68-45.54-.88-5.51-1.37-11.44-1.6-17.33l25.09 16.6c9.34 4.18 33.91 15.69 59.93 32.06 2.77 1.75 4.09 5.08 3.27 8.25z" fill="#7c7c96"/><path d="m327.982 415.6c-.04.22-3.35 21.6-.57 43.97-7.22.28-15.04.53-23.49.73-14.16.34-30.08.54-47.92.54-28.49 0-52.09-.52-71.41-1.27 2.78-22.37-.53-43.75-.57-43.98-.34-2.16.28-4.37 1.7-6.04 1.43-1.67 3.51-2.64 5.71-2.64h129.14c2.2 0 4.29.97 5.71 2.64 1.43 1.67 2.05 3.88 1.7 6.05z" fill="#7c7c96"/><path d="m327.982 415.6c-.04.22-3.35 21.6-.57 43.97-7.22.28-15.04.53-23.49.73-3.04-19.12-1.4-43.3-.48-53.39h17.13c2.2 0 4.29.97 5.71 2.64 1.43 1.67 2.05 3.88 1.7 6.05z" fill="#606075"/><path d="m512.002 232.76c0 109.02-6.48 173.56-6.55 174.2-.36 3.57-3.2 6.38-6.77 6.71-.31.03-10.4.93-28.83 2.15-38.79 2.56-114.55 6.49-213.85 6.49-146.49 0-241.73-8.56-242.68-8.64-3.57-.33-6.41-3.14-6.77-6.71-.07-.64-6.55-65.18-6.55-174.2 0-109.03 6.48-173.56 6.55-174.2.36-3.57 3.2-6.38 6.77-6.71.95-.08 96.19-8.64 242.68-8.64 100.23 0 176.46 4.01 214.92 6.56l.87.06c17.2 1.15 26.59 2 26.89 2.02 3.57.33 6.41 3.14 6.77 6.71.07.64 6.55 65.17 6.55 174.2z" fill="#9696b8"/><path d="m505.452 58.56c.07.64 6.55 65.17 6.55 174.2 0 109.02-6.48 173.56-6.55 174.2-.36 3.57-3.2 6.38-6.77 6.71-.31.03-10.4.93-28.83 2.15 3.57-.33 5.24-2.99 5.6-6.61.07-.65 6.55-66.02 6.55-176.45 0-110.44-6.48-175.8-6.55-176.45-.28-2.83-2.07-5.4-4.53-6.54l.87.06c17.2 1.15 26.59 2 26.89 2.02 3.57.33 6.41 3.14 6.77 6.71z" fill="#7c7c96"/><path d="m482.002 232.75c0 55.61-1.74 99.13-3.19 125.86-.21 3.78-3.2 6.82-6.99 7.07-6.54.44-14.35.94-23.35 1.45-41.5 2.37-108.36 5.17-192.47 5.17-102.35 0-179.15-4.14-215.82-6.62-3.79-.25-6.78-3.29-6.99-7.07-1.45-26.72-3.19-70.25-3.19-125.86 0-66.53 2.4-116.09 4.41-145.95.25-3.74 3.23-6.72 6.98-6.98 36.65-2.47 113.28-6.61 214.61-6.61 83.25 0 149.83 2.79 191.26 5.16 9 .51 16.81 1.01 23.35 1.45 3.75.26 6.73 3.24 6.98 6.98 2.01 29.87 4.41 79.44 4.41 145.95z" fill="#f4f2f1"/><path d="m482.002 232.75c0 55.61-1.74 99.13-3.19 125.86-.21 3.78-3.2 6.82-6.99 7.07-6.54.44-14.35.94-23.35 1.45 1.72-30.35 3.53-76.22 3.53-134.7 0-72.72-2.8-125.94-4.74-154.06 9 .51 16.81 1.01 23.35 1.45 3.75.26 6.73 3.24 6.98 6.98 2.01 29.87 4.41 79.44 4.41 145.95z" fill="#ded6d4"/><g fill="#d1c4c1"><path d="m100.44 323.943c-8.055-.36-16.041-.75-23.827-1.163-.289-7.806-.541-15.785-.753-23.807-.11-4.141-3.566-7.402-7.695-7.3-4.141.109-7.409 3.555-7.3 7.695.276 10.443.62 20.815 1.023 30.831.156 3.861 3.219 6.972 7.078 7.187 9.963.554 20.327 1.073 30.805 1.542.114.005.228.007.341.007 3.988 0 7.307-3.141 7.487-7.165.184-4.137-3.021-7.642-7.159-7.827z"/><path d="m100.667 106.592c-10.486.47-20.85.991-30.805 1.546-3.827.213-6.877 3.279-7.072 7.107-.506 9.939-.95 20.317-1.321 30.844-.146 4.14 3.091 7.614 7.231 7.759.09.003.179.005.269.005 4.02 0 7.348-3.187 7.49-7.236.286-8.092.614-16.092.981-23.87 7.804-.416 15.815-.808 23.899-1.17 4.138-.186 7.342-3.691 7.157-7.829-.187-4.137-3.69-7.337-7.829-7.156z"/><path d="m410.666 121.577c8.084.362 16.095.754 23.899 1.17.367 7.778.696 15.778.981 23.87.143 4.05 3.47 7.236 7.49 7.236.089 0 .179-.001.269-.005 4.14-.146 7.377-3.62 7.231-7.759-.371-10.528-.815-20.905-1.321-30.844-.195-3.828-3.245-6.894-7.072-7.107-9.955-.555-20.319-1.076-30.805-1.546-4.141-.179-7.643 3.018-7.829 7.157-.185 4.137 3.019 7.643 7.157 7.828z"/><path d="m443.84 291.674c-4.107-.081-7.585 3.159-7.695 7.3-.212 8.022-.464 16.001-.753 23.807-8.359.443-16.947.86-25.618 1.242-4.138.183-7.345 3.685-7.162 7.823.177 4.025 3.497 7.169 7.487 7.169.111 0 .224-.002.336-.007 11.103-.489 22.073-1.035 32.604-1.621 3.858-.214 6.922-3.326 7.078-7.187.403-10.016.747-20.388 1.023-30.831.11-4.14-3.159-7.585-7.3-7.695z"/></g><path d="m409.834 495.506c-.815-4.061-4.768-6.691-8.83-5.877-.368.074-37.986 7.376-145.002 7.376-106.533 0-144.639-7.304-145.012-7.378-4.055-.812-8.005 1.821-8.82 5.879-.815 4.061 1.816 8.014 5.877 8.83 1.56.313 39.457 7.669 147.955 7.669s146.395-7.356 147.955-7.669c4.061-.816 6.692-4.769 5.877-8.83z" fill="#7c7c96"/><path d="m303.922 270.18c0 26.43-21.5 47.93-47.92 47.93-4.5 0-8.87-.62-13-1.79-20.13-5.69-34.92-24.22-34.92-46.14 0-4.14 3.36-7.5 7.5-7.5h80.84c4.14 0 7.5 3.36 7.5 7.5z" fill="#9696b8"/><path d="m303.922 270.18c0 26.43-21.5 47.93-47.92 47.93-4.5 0-8.87-.62-13-1.79 20.13-5.69 34.92-24.22 34.92-46.14 0-4.14-3.36-7.5-7.5-7.5h26c4.14 0 7.5 3.36 7.5 7.5z" fill="#7c7c96"/><g><path d="m369.302 113.32c0 36.82-17.71 71.04-47.59 92.32-.13 8.3-.33 16.02-.56 23.13l-65.15 48.91-12.95-9.79-52.2-39.46c-.23-7.01-.43-14.62-.56-22.78-29.87-21.29-47.59-55.51-47.59-92.33 0-58.08 43.93-106.11 100.3-112.57 4.26-.5 8.6-.75 13-.75 62.47 0 113.3 50.84 113.3 113.32z" fill="#ffd07b"/><path d="m369.302 113.32c0 36.82-17.71 71.04-47.59 92.32-.13 8.3-.33 16.02-.56 23.13l-65.15 48.91-12.95-9.79 52.1-39.12c.23-7.11.43-14.83.56-23.13 29.88-21.28 47.59-55.5 47.59-92.32 0-58.08-43.93-106.11-100.3-112.57 4.26-.5 8.6-.75 13-.75 62.47 0 113.3 50.84 113.3 113.32z" fill="#f6b95e"/></g><g fill="#e9ad56"><path d="m220.374 101.646c-4.035.937-6.546 4.966-5.61 9.001.126.546 12.672 55.381 12.672 118.865 0 4.142 3.358 7.5 7.5 7.5s7.5-3.358 7.5-7.5c0-65.279-12.528-119.962-13.061-122.258-.937-4.033-4.963-6.543-9.001-5.608z"/><path d="m291.631 101.646c-4.032-.935-8.063 1.574-9.001 5.608-.533 2.295-13.061 56.979-13.061 122.258 0 4.142 3.358 7.5 7.5 7.5s7.5-3.358 7.5-7.5c0-63.484 12.546-118.319 12.672-118.865.936-4.034-1.575-8.064-5.61-9.001z"/></g><path d="m321.152 228.77c-.56 17.36-1.32 31.08-1.97 40.61-.25 3.78-3.29 6.78-7.07 6.98-6.1.33-14.75.67-24.67.92-9.67.24-20.55.4-31.44.4-26.88 0-43.11-.94-56.21-1.82-3.74-.25-6.73-3.23-6.98-6.98-.64-9.51-1.41-23.19-1.96-40.45 15.08.63 35.48 1.24 65.15 1.24 13.53 0 26.93-.13 39.13-.33 9.6-.15 18.45-.35 26.02-.57z" fill="#e2e2eb"/><path d="m295.132 229.34c9.6-.15 18.45-.35 26.02-.57-.56 17.36-1.32 31.08-1.97 40.61-.25 3.78-3.29 6.78-7.07 6.98-6.1.33-14.75.67-24.67.92 3.14-.74 5.52-3.47 5.74-6.79.64-9.43 1.39-24.03 1.95-41.15z" fill="#bcbcd1"/><path d="m341.065 228.064c-.162-4.14-3.661-7.375-7.787-7.201-16.571.648-46.891 1.302-77.272 1.302-36.95 0-59.229-.928-77.209-1.797-4.154-.193-7.654 2.992-7.854 7.129s2.992 7.653 7.129 7.854c18.156.878 40.649 1.814 77.934 1.814 30.584 0 61.142-.66 77.858-1.314 4.139-.162 7.363-3.648 7.201-7.787z" fill="#9696b8"/><path d="m306.752 135.744c-.225-4.136-3.759-7.315-7.897-7.081-9.173.5-25.98 1.005-42.85 1.005-20.465 0-32.801-.715-42.758-1.385-4.143-.285-7.708 2.846-7.987 6.979s2.846 7.709 6.979 7.987c10.2.687 22.835 1.419 43.766 1.419 17.152 0 34.291-.516 43.667-1.027 4.136-.225 7.306-3.761 7.08-7.897z" fill="#f6b95e"/></g></svg>