<svg xmlns="http://www.w3.org/2000/svg" viewBox="0 0 512 512"><path d="M497 457V257c0-22-18-40-40-40H55c-22 0-40 18-40 40v200c0 22 18 40 40 40h402c22 0 40-18 40-40z" fill="#fff5f5"/><path d="M457 217H256v280h201c22 0 40-18 40-40V257c0-22-18-40-40-40z" fill="#ebe1dc"/><path d="M497 281l-65 22c-6 2-10 8-10 14v80c0 6 4 12 10 14l65 22z" fill="#464141"/><path d="M512 457V257c0-30-25-55-55-55H55c-30 0-55 25-55 55v200c0 30 25 55 55 55h402c30 0 55-25 55-55zM75 482V232h382c14 0 25 11 25 25v200c0 14-11 25-25 25z" fill="#828282"/><path d="M457 202H256v30h201c14 0 25 11 25 25v200c0 14-11 25-25 25H256v30h201c30 0 55-25 55-55V257c0-30-25-55-55-55z" fill="#5a5a5a"/><circle cx="256" cy="295" fill="#7ed8f7" r="120"/><path d="M256 175v240a120 120 0 000-240z" fill="#2fc0f0"/><path d="M256 160a135 135 0 100 270 135 135 0 000-270zm0 240c-2 0-10-5-18-25l-7-25h50l-7 25c-8 20-16 25-18 25zm-29-80a303 303 0 010-50h58a303 303 0 010 50zm-76-25c0-9 1-17 3-25h43a332 332 0 000 50h-43c-2-8-3-16-3-25zm105-105c2 0 10 5 18 25l7 25h-50l7-25c8-20 16-25 18-25zm59 80h43a105 105 0 010 50h-43a332 332 0 000-50zm30-30h-34a206 206 0 00-11-40c19 8 35 22 45 40zm-133-40l-2 5c-4 10-7 22-9 35h-34c10-18 26-32 45-40zm-45 150h34a206 206 0 0011 40c-19-8-35-22-45-40zm133 40l2-5c4-10 7-22 9-35h34c-10 18-26 32-45 40z" fill="#beebfa"/><path d="M256 160v30c2 0 10 5 18 25l7 25h-25v30h29a303 303 0 010 50h-29v30h25l-7 25c-8 20-16 25-18 25v30a135 135 0 000-270zm89 80h-34a206 206 0 00-11-40c19 8 35 22 45 40zm-45 150l2-5c4-10 7-22 9-35h34c-10 18-26 32-45 40zm15-70a332 332 0 000-50h43a105 105 0 010 50z" fill="#7ed8f7"/><path d="M256 190c-5 0-10-3-13-7l-46-79c-13-21-13-47-1-69s35-35 60-35 48 13 60 35 12 48-1 69l-46 79c-3 4-8 7-13 7z" fill="#ff9f22"/><path d="M316 35a68 68 0 00-60-35v190c5 0 10-3 13-7l46-79c13-21 13-47 1-69z" fill="#ff6426"/><circle cx="256" cy="69.2" fill="#828282" r="15"/><path d="M256 54v30a15 15 0 000-30z" fill="#5a5a5a"/></svg>