<svg id="Capa_1" enable-background="new 0 0 512 512" height="512" viewBox="0 0 512 512" width="512" xmlns="http://www.w3.org/2000/svg"><g><path d="m497 457v-200c0-22.091-17.909-40-40-40h-402c-22.091 0-40 17.909-40 40v200c0 22.091 17.909 40 40 40h402c22.091 0 40-17.909 40-40z" fill="#fff5f5"/><path d="m457 217h-201v280h201c22.091 0 40-17.909 40-40v-200c0-22.091-17.909-40-40-40z" fill="#ebe1dc"/><path d="m497 281.188-64.743 21.581c-6.126 2.042-10.257 7.774-10.257 14.231v80c0 6.456 4.131 12.189 10.257 14.23l64.743 21.582z" fill="#464141"/><path d="m512 457v-200c0-30.327-24.673-55-55-55h-402c-30.327 0-55 24.673-55 55v200c0 30.327 24.673 55 55 55h402c30.327 0 55-24.673 55-55zm-437 25v-250h382c13.785 0 25 11.215 25 25v200c0 13.785-11.215 25-25 25z" fill="#828282"/><path d="m457 202h-201v30h201c13.785 0 25 11.215 25 25v200c0 13.785-11.215 25-25 25h-201v30h201c30.327 0 55-24.673 55-55v-200c0-30.327-24.673-55-55-55z" fill="#5a5a5a"/><circle cx="256" cy="295" fill="#7ed8f7" r="120"/><path d="m256 175v240c66.274 0 120-53.726 120-120s-53.726-120-120-120z" fill="#2fc0f0"/><path d="m256 160c-74.439 0-135 60.561-135 135s60.561 135 135 135 135-60.561 135-135-60.561-135-135-135zm0 240c-2.139 0-9.995-4.669-17.774-25.414-2.765-7.374-5.084-15.655-6.944-24.586h49.436c-1.859 8.931-4.178 17.212-6.944 24.586-7.779 20.745-15.635 25.414-17.774 25.414zm-28.972-80c-.672-8.098-1.028-16.463-1.028-25s.357-16.902 1.028-25h57.943c.672 8.098 1.028 16.463 1.028 25s-.357 16.902-1.028 25zm-76.028-25c0-8.613 1.05-16.984 3.015-25h42.918c-.617 8.158-.933 16.522-.933 25s.316 16.842.933 25h-42.918c-1.965-8.016-3.015-16.387-3.015-25zm105-105c2.139 0 9.995 4.669 17.774 25.414 2.765 7.374 5.084 15.654 6.944 24.586h-49.436c1.859-8.932 4.178-17.212 6.944-24.586 7.779-20.745 15.635-25.414 17.774-25.414zm59.067 80h42.918c1.965 8.016 3.015 16.387 3.015 25s-1.05 16.984-3.015 25h-42.918c.617-8.158.933-16.522.933-25s-.316-16.842-.933-25zm30.339-30h-34.142c-2.331-12.813-5.485-24.68-9.4-35.12-.695-1.854-1.405-3.614-2.123-5.324 18.909 8.701 34.806 22.858 45.665 40.444zm-133.147-40.444c-.718 1.71-1.428 3.471-2.123 5.324-3.915 10.44-7.069 22.307-9.4 35.12h-34.142c10.859-17.586 26.756-31.743 45.665-40.444zm-45.665 150.444h34.142c2.331 12.813 5.485 24.68 9.4 35.12.695 1.854 1.405 3.614 2.123 5.324-18.909-8.701-34.806-22.858-45.665-40.444zm133.147 40.444c.718-1.71 1.428-3.471 2.123-5.324 3.915-10.44 7.069-22.307 9.4-35.12h34.142c-10.859 17.586-26.756 31.743-45.665 40.444z" fill="#beebfa"/><path d="m256 160v30c2.139 0 9.995 4.669 17.774 25.414 2.765 7.374 5.084 15.654 6.944 24.586h-24.718v30h28.972c.672 8.098 1.028 16.463 1.028 25s-.357 16.902-1.028 25h-28.972v30h24.718c-1.859 8.931-4.178 17.212-6.944 24.586-7.779 20.745-15.635 25.414-17.774 25.414v30c74.439 0 135-60.561 135-135s-60.561-135-135-135zm89.406 80h-34.142c-2.331-12.813-5.485-24.68-9.4-35.12-.695-1.854-1.405-3.614-2.123-5.324 18.909 8.701 34.806 22.858 45.665 40.444zm-45.665 150.444c.718-1.71 1.428-3.471 2.123-5.324 3.915-10.44 7.069-22.307 9.4-35.12h34.142c-10.859 17.586-26.756 31.743-45.665 40.444zm15.326-70.444c.617-8.158.933-16.522.933-25s-.316-16.842-.933-25h42.918c1.965 8.016 3.015 16.387 3.015 25s-1.05 16.984-3.015 25z" fill="#7ed8f7"/><path d="m256 190c-5.294 0-10.195-2.79-12.897-7.342l-46.499-78.314c-12.84-21.625-13.078-47.583-.637-69.439s34.884-34.905 60.033-34.905 47.592 13.049 60.033 34.905 12.203 47.815-.637 69.439l-46.499 78.314c-2.702 4.552-7.603 7.342-12.897 7.342z" fill="#ff9f22"/><path d="m316.033 34.905c-12.441-21.856-34.884-34.905-60.033-34.905v190c5.294 0 10.195-2.79 12.897-7.342l46.499-78.314c12.84-21.624 13.079-47.583.637-69.439z" fill="#ff6426"/><circle cx="256" cy="69.16" fill="#828282" r="15"/><path d="m256 54.16v30c8.284 0 15-6.716 15-15s-6.716-15-15-15z" fill="#5a5a5a"/></g></svg>