<svg viewBox="0 0 64 64" xmlns="http://www.w3.org/2000/svg"><g data-name="Color copy"><path d="M3 27h58v34H9a6 6 0 01-6-6V27z" fill="#57b7eb"/><path d="M23 27H3v28a6 6 0 006 6h52v-8H49a26 26 0 01-26-26z" fill="#4891d3"/><path d="M9 17a6 6 0 00-6 6v32a6 6 0 0112 0V23a6 6 0 00-6-6z" fill="#aae1f9"/><path d="M43 45a6 6 0 000-1l2-1-2-4-2 1a6 6 0 00-2-1v-2h-4v2a6 6 0 00-2 1l-2-1-2 4 2 1a6 6 0 000 2l-2 1 2 4 2-1a6 6 0 002 1v2h4v-2a6 6 0 002-1l2 1 2-4-2-1a6 6 0 000-1zm-6 2a2 2 0 112-2 2 2 0 01-2 2z" fill="#f9e109"/><circle cx="23" cy="54" fill="#fcbc04" r="2"/><path d="M10 33V17a6 6 0 00-7 6v32a6 6 0 0112 0v-6a27 27 0 01-5-16z" fill="#57b7eb"/><path d="M44 48a10 10 0 01-6-2 2 2 0 11-2-2 10 10 0 01-2-4 6 6 0 00-1 0l-2-1-2 4 2 1a6 6 0 000 2l-2 1 2 4 2-1a6 6 0 002 1v2h4v-2a6 6 0 002-1l2 1 2-3z" fill="#fcbc04"/><path d="M24 55a2 2 0 01-2-3 2 2 0 103 3 2 2 0 01-1 0zM33 50a6 6 0 002 1v2h4v-2a26 26 0 01-8-5l-2 1 2 4z" fill="#e59730"/><path d="M50 58H38a1 1 0 010-2h12a2 2 0 002-2v-2a1 1 0 012 0v2a4 4 0 01-4 4zM26 46h-2a5 5 0 01-1-10h1a8 8 0 005-4 1 1 0 012 2 10 10 0 01-6 4h-2a3 3 0 001 6h2a1 1 0 010 2z" fill="#c4f236"/><path d="M38 16a8 8 0 10-13 6v2h10v-2a8 8 0 003-6z" fill="#fcbc04"/><rect fill="#d0d8da" height="4" rx="2" width="14" x="23" y="24"/><path d="M25 28h10v1a5 5 0 01-5 5 5 5 0 01-5-5v-1z" fill="#93999a"/><path d="M27 13a9 9 0 011-5 8 8 0 00-3 14v2h10v-2a9 9 0 01-8-9z" fill="#e59730"/><path d="M25 24a2 2 0 000 4h10a2 2 0 002-2H27a2 2 0 01-2-2z" fill="#93999a"/><path d="M33 30h2a5 5 0 000-1v-1H25v1a5 5 0 003 5 5 5 0 015-4z" fill="#656b76"/><g fill="#f9e109"><circle cx="18" cy="16" r="1"/><circle cx="42" cy="16" r="1"/><circle cx="30" cy="4" r="1"/><circle cx="19.6" cy="10" r="1"/><circle cx="40.4" cy="22" r="1"/><circle cx="36" cy="5.6" r="1"/><circle cx="40.4" cy="10" r="1"/><circle cx="19.6" cy="22" r="1"/><circle cx="24" cy="5.6" r="1"/><path d="M29 24l-1-8 2 1 2-1-1 8h2l1-9a1 1 0 00-1-1l-3 1-3-1a1 1 0 00-1 1l1 9z"/></g><g><path d="M57 38h-8V13h8z" fill="#a1d51c"/><path d="M53 48l4-10h-8z" fill="#fcbc04"/><path d="M57 9h-8V7a4 4 0 014-4 4 4 0 014 4v2z" fill="#aae1f9"/><path d="M57 13h-8V9h8z" fill="#d0d8da"/><path d="M51 42h4l-2 6z" fill="#93999a"/><path d="M53 27a56 56 0 001 11h-5V13h4z" fill="#7ab92d"/><path d="M55 42h-4l2 6-4-10h5l1 4z" fill="#e59730"/><path d="M53 3a4 4 0 011 0 4 4 0 00-1 3v3h-4V7a4 4 0 014-4z" fill="#57b7eb"/><path d="M49 9h4v4h-4z" fill="#93999a"/><path d="M55 42v1l-2 5-2-6z" fill="#656b76"/><path d="M52 13h3v25h-3z" fill="#57b7eb"/><path d="M53 13h-1v25h2a56 56 0 01-1-11z" fill="#4891d3"/></g><g fill="#a1d51c"><path d="M24 46h2a1 1 0 000-2h-2a3 3 0 01-1-6h2v-2h-2a5 5 0 001 10zM52 53v1a2 2 0 01-2 2H38a1 1 0 000 2h12a4 4 0 004-4v-1z"/></g></g></svg>