<svg xmlns="http://www.w3.org/2000/svg" viewBox="0 0 512 512"><path d="M283.6 335.1c-8 0-15.3 2.5-21.3 6.6a4 4 0 01-6.3-3.3v-82.9h-74a4 4 0 00-3.2 6.3 37.5 37.5 0 01-28.3 58.7 37.6 37.6 0 01-33.7-58.7 4 4 0 00-3.3-6.3h-57C-2.2 315.8 37 418.5 122 422.9a75.2 75.2 0 00134 59v-75a4 4 0 016.3-3.2 37.5 37.5 0 1021.3-68.6z" fill="#ffaa17"/><path d="M116.8 261.8a37.6 37.6 0 1062 0 4 4 0 013.3-6.3H256v-83a4 4 0 00-6.3-3.2 37.5 37.5 0 110-62 4 4 0 006.3-3.3V30.1a75 75 0 00-134.1 58C37 92.6-2.3 195.1 56.5 255.5h57a4 4 0 013.3 6.3z" fill="#32fca5"/><path d="M455.7 255.5h-57.2a4 4 0 01-3.3-6.3 37.5 37.5 0 00-28.3-58.7 37.6 37.6 0 00-33.7 58.7 4 4 0 01-3.3 6.3H256v83a4 4 0 006.3 3.2 37.6 37.6 0 110 62 4 4 0 00-6.3 3.3v74.9a75 75 0 00134.1-58c85.5-4.6 123.8-108 65.5-168.3v-.1z" fill="#cd0000"/><path d="M256 407a4 4 0 016.3-3.3 37.5 37.5 0 100-62 4 4 0 01-6.3-3.3V407z" fill="#ff7900"/><path d="M390 89.1a75.2 75.2 0 00-134-59v74a4 4 0 01-6.3 3.2 37.6 37.6 0 100 62 4 4 0 016.3 3.3v82.9h74a4 4 0 003.2-6.3 37.6 37.6 0 1162 0 4 4 0 003.3 6.3h57.2c58.7-59.5 18.6-162-65.7-166.4z" fill="#0095ff"/><path d="M249.7 107.3a37.6 37.6 0 100 62 4 4 0 016.3 3.3V104a4 4 0 01-6.3 3.3z" fill="#4ec9ff"/></svg>